# xmcd
#
# Track frame offsets:
#	150
#	79614
#	113627
#	162326
#
# Disc length: 3621 seconds
#
# Revision: 1
# Processed by: cddbd v1.5.2PL0 Copyright (c) Steve Scherf et al.
# Submitted via: audiograbber 1.83.01
#
DISCID=230e2304
DTITLE=Grateful Dead - 69-09-01 Baton Rouge International Speedway, Prairievill
DTITLE=e LA
DYEAR=1900
DGENRE=
TTITLE0=Dark Star
TTITLE1=St Stephen
TTITLE2=The Eleven
TTITLE3=Turn On Your Lovelight
EXTD=
EXTT0=
EXTT1=
EXTT2=
EXTT3=
PLAYORDER=
